# xmcd
#
# Track frame offsets:
#	150
#	28537
#	58312
#	83512
#	109182
#	137155
#	149980
#	180507
#	207210
#	237657
#	261957
#
# Disc length: 3956 seconds
#
# Revision: 0
# Processed by: cddbd v1.4b41PL3 Copyright (c) Steve Scherf et al.
# Submitted via: audiograbber 1.80
#
DISCID=a70f720b
DTITLE=ar rehaman - collections
DYEAR=1900
DGENRE=
TTITLE0=t1
TTITLE1=t2
TTITLE2=t3
TTITLE3=t4
TTITLE4=t5
TTITLE5=t6
TTITLE6=t7
TTITLE7=t8
TTITLE8=t9
TTITLE9=t10
TTITLE10=t11
EXTD=nice hindhi
EXTT0=tr1
EXTT1=t2
EXTT2=t2
EXTT3=t4
EXTT4=t5
EXTT5=t6
EXTT6=t7
EXTT7=t8
EXTT8=t9
EXTT9=t10
EXTT10=t11
PLAYORDER=
